<?xml version="1.0" encoding="utf-8"?>
<!-- Generator: Adobe Illustrator 22.0.0, SVG Export Plug-In . SVG Version: 6.00 Build 0)  -->
<svg version="1.1" id="Layer_1" xmlns="http://www.w3.org/2000/svg" xmlns:xlink="http://www.w3.org/1999/xlink" x="0px" y="0px"
	 viewBox="0 0 448 512" style="enable-background:new 0 0 448 512;" xml:space="preserve">
<style type="text/css">
	.st0{fill:#3274ED;stroke:#FFFFFF;stroke-width:8;stroke-miterlimit:10;}
</style>
<path class="st0" d="M42.8,288.1l-21.3-21.3c-9-9-9-23.6,0-32.5L207.7,48c9-9,23.6-9,32.5,0l186.2,186.2c9,9,9,23.6,0,32.5
	L405.1,288c-9.1,9.1-24,8.9-32.9-0.4L262.3,172.2v275.4c0,12.7-10.3,23-23,23h-30.7c-12.7,0-23-10.3-23-23V172.2l-110,115.5
	C66.7,297.1,51.9,297.3,42.8,288.1z"/>
</svg>
