<?xml version="1.0" encoding="utf-8"?>
<!-- Generator: Adobe Illustrator 22.0.0, SVG Export Plug-In . SVG Version: 6.00 Build 0)  -->
<svg version="1.1" id="Layer_1" xmlns="http://www.w3.org/2000/svg" xmlns:xlink="http://www.w3.org/1999/xlink" x="0px" y="0px"
	 viewBox="0 0 28.3 28.3" style="enable-background:new 0 0 28.3 28.3;" xml:space="preserve">
<style type="text/css">
	.st0{fill:#FFFFFF;}
</style>
<path class="st0" d="M24.2,5.9L5.1,25c-0.4,0.4-1.3,0.4-1.7,0l0,0c-0.5-0.5-0.5-1.2,0-1.7L22.5,4.2c0.5-0.5,1.2-0.5,1.7,0l0,0
	C24.7,4.6,24.7,5.4,24.2,5.9z"/>
<path class="st0" d="M3.4,4.2L3.4,4.2c0.5-0.5,1.2-0.5,1.7,0l19.1,19.1c0.5,0.5,0.5,1.2,0,1.7l0,0c-0.4,0.4-1.3,0.4-1.7,0L3.4,5.9
	C2.9,5.4,3,4.6,3.4,4.2z"/>
</svg>
