<?xml version="1.0" encoding="utf-8"?>
<!-- Generator: Adobe Illustrator 22.0.0, SVG Export Plug-In . SVG Version: 6.00 Build 0)  -->
<svg version="1.1" id="Layer_1" xmlns="http://www.w3.org/2000/svg" xmlns:xlink="http://www.w3.org/1999/xlink" x="0px" y="0px"
	 viewBox="0 0 31.2 22.7" style="enable-background:new 0 0 31.2 22.7;" xml:space="preserve">
<style type="text/css">
	.st0{fill:#FFFFFF;}
</style>
<path class="st0" d="M29.2,3.1h-27C1.6,3.1,1,2.5,1,1.9v0c0-0.7,0.5-1.2,1.2-1.2h27c0.7,0,1.2,0.5,1.2,1.2v0
	C30.4,2.5,29.9,3.1,29.2,3.1z"/>
<path class="st0" d="M29.2,12.4h-27c-0.7,0-1.2-0.5-1.2-1.2v0C1,10.6,1.6,10,2.2,10h27c0.7,0,1.2,0.5,1.2,1.2v0
	C30.4,11.9,29.9,12.4,29.2,12.4z"/>
<path class="st0" d="M29.2,21.7h-27c-0.7,0-1.2-0.5-1.2-1.2v0c0-0.7,0.5-1.2,1.2-1.2h27c0.7,0,1.2,0.5,1.2,1.2v0
	C30.4,21.2,29.9,21.7,29.2,21.7z"/>
</svg>
